<?xml version="1.0" encoding="utf-8"?>
<!-- Generator: Adobe Illustrator 17.1.0, SVG Export Plug-In . SVG Version: 6.00 Build 0)  -->
<!DOCTYPE svg PUBLIC "-//W3C//DTD SVG 1.1//EN" "http://www.w3.org/Graphics/SVG/1.1/DTD/svg11.dtd">
<svg version="1.1" id="Слой_1" xmlns="http://www.w3.org/2000/svg" xmlns:xlink="http://www.w3.org/1999/xlink" x="0px" y="0px"
	 viewBox="0 0 1920 1080" enable-background="new 0 0 1920 1080" xml:space="preserve">
<g id="XMLID_531_">
</g>
<g>
	<defs>
		<path id="XMLID_877_" d="M1902.4-0.1H25.6C11.4-0.1,0,9.8,0,21.9V1058c0,12.1,11.4,22,25.6,22h1876.9c14.1,0,25.6-9.8,25.6-22
			V21.9C1928,9.8,1916.6-0.1,1902.4-0.1z"/>
	</defs>
	<clipPath id="XMLID_3_">
		<use xlink:href="#XMLID_877_"  overflow="visible"/>
	</clipPath>
	<path id="XMLID_311_" opacity="0.18" clip-path="url(#XMLID_3_)" fill="#00AEEF" stroke="#F15A29" stroke-miterlimit="10" d="
		M2514.8,524.5c-34.9-31.9-85-48.9-117.9-82.2c-19.5-19.7-26.7-42.4-12.3-66.1c11.9-19.6,29.1-37.3,44-55.2
		c29.1-35,57.8-71.4,72.8-113c11.8-32.6,13.8-67.3,7.8-100.9c-11.9-67.2-56.8-130.6-123.5-167.7c-42.7-23.8-92.9-33.9-142.3-42.1
		c-58.6-9.7-117.4-18.8-176-28.2c-119.1-19.1-238-39.1-356.8-59.5c-15.3-2.6-30.7-6.1-46.1-7.9c-14.3-1.7-30,0.5-44.3,2
		c-22.7,2.3-45.1,6.1-67,11.4c-89.2,21.5-175.5,68.2-229.9,133.5c-28.7,34.4-40.9,72.5-30.5,114.2c5.2,20.8,13.6,40.9,17.2,62
		c3,17.8,3.2,36,0.9,53.8c-4.4,34.4-18.8,69.5-45.6,95.8c-33.3,32.6-77.8,41-126.3,44.8c-45.5,3.6-88.5,9.3-125.3,34.3
		c-32.2,21.9-55.7,53.4-64.8,87.9c-10.5,40,3.2,77.4,16.8,115.5c7.4,20.9,14.7,42.3,14.2,64.4c-0.5,20.7-9.3,39.3-22.4,56.4
		c-22.3,29.2-54.2,53-71.6,85c-17.3,31.9-14,67.2,8.1,96.8c56.9,75.9,174.8,66.6,264.1,52.8c56.6-8.7,114.4-19.6,172.1-11.6
		c46.6,6.5,89.4,24.7,129,46.1c79.1,42.7,149,96.9,238.1,124.4c85.3,26.4,179,31.2,267.7,16c88-15.1,178.4-51.1,239.5-108.9
		c30.5-28.9,50.1-63.2,51.5-102.5c0.7-21.6-2.8-43.8,1.8-65.2c4.9-22.9,20.8-39.4,43.3-51.5c19.4-10.4,40.8-17.6,61.4-26
		c25.6-10.5,50.7-22.1,75-34.7c22.9-11.9,45.5-24.6,66.8-38.4c16-10.4,31.2-22.4,39-38.7C2559.6,587.3,2541.1,550.1,2514.8,524.5z"
		/>
</g>
</svg>
